<svg width="184" height="72" viewBox="0 0 184 72" fill="none" xmlns="http://www.w3.org/2000/svg">
<path d="M20.3574 56.9065H12.4358V24.6806H0.498047V16.6171H32.2674V24.6806H20.3574V56.9065ZM44.593 18.64C44.593 19.3518 44.4546 20.0167 44.1774 20.6348C43.9191 21.253 43.5591 21.7961 43.0974 22.2644C42.6356 22.7139 42.0911 23.0792 41.4633 23.3601C40.8537 23.6223 40.1983 23.7535 39.4965 23.7535C38.795 23.7535 38.1301 23.6223 37.5023 23.3601C36.893 23.0792 36.3575 22.7139 35.8959 22.2644C35.4527 21.7961 35.0927 21.253 34.8156 20.6348C34.5571 20.0167 34.4279 19.3518 34.4279 18.64C34.4279 17.947 34.5571 17.2914 34.8156 16.6733C35.0927 16.0365 35.4527 15.4933 35.8959 15.0438C36.3575 14.5755 36.893 14.2103 37.5023 13.948C38.1301 13.6671 38.795 13.5266 39.4965 13.5266C40.1983 13.5266 40.8537 13.6671 41.4633 13.948C42.0911 14.2103 42.6356 14.5755 43.0974 15.0438C43.5591 15.4933 43.9191 16.0365 44.1774 16.6733C44.4546 17.2914 44.593 17.947 44.593 18.64ZM43.2914 56.9065H35.6743V26.8159H43.2914V56.9065ZM75.0053 32.8003L69.4655 38.4476C69.1887 37.6609 68.8101 36.9585 68.3299 36.3404C67.85 35.7036 67.3054 35.1697 66.6958 34.7389C66.1051 34.3081 65.4588 33.9804 64.7569 33.7556C64.0554 33.5308 63.335 33.4184 62.5965 33.4184C61.5625 33.4184 60.5838 33.6338 59.6607 34.0646C58.7558 34.4954 57.9616 35.1042 57.2787 35.8908C56.6138 36.6588 56.0874 37.5766 55.6998 38.6444C55.3122 39.712 55.1182 40.8919 55.1182 42.1843C55.1182 43.233 55.3122 44.2166 55.6998 45.1346C56.0874 46.0521 56.6138 46.8577 57.2787 47.5505C57.9616 48.2436 58.7558 48.7868 59.6607 49.18C60.5838 49.5736 61.5625 49.77 62.5965 49.77C63.335 49.77 64.046 49.6672 64.7293 49.4612C65.4127 49.2552 66.0495 48.9648 66.6406 48.59C67.2498 48.1968 67.7853 47.7285 68.247 47.1853C68.7269 46.6233 69.1149 46.0053 69.4103 45.331L74.9497 50.9783C74.2482 51.9899 73.4355 52.8983 72.5124 53.7034C71.6074 54.509 70.6197 55.1926 69.5487 55.7546C68.4962 56.3165 67.3791 56.7381 66.1974 57.0189C65.0341 57.3185 63.8338 57.4685 62.5965 57.4685C60.5101 57.4685 58.5436 57.0749 56.697 56.2885C54.869 55.483 53.2625 54.3874 51.8777 53.0011C50.511 51.6151 49.4309 49.9948 48.6368 48.1405C47.843 46.2861 47.4459 44.301 47.4459 42.1843C47.4459 39.8804 47.843 37.7264 48.6368 35.7223C49.4309 33.7181 50.511 31.9762 51.8777 30.4964C53.2625 28.998 54.869 27.818 56.697 26.9564C58.5436 26.0948 60.5101 25.664 62.5965 25.664C63.8338 25.664 65.0432 25.8232 66.225 26.1416C67.4253 26.46 68.5609 26.9283 69.6319 27.5464C70.7214 28.1458 71.7182 28.8856 72.6232 29.766C73.5463 30.6463 74.3405 31.6578 75.0053 32.8003ZM86.3337 56.9065H78.7166V14.8471H86.3337V41.3695L97.6065 26.8721H106.304L96.4712 39.4028L106.304 56.9065H97.6065L91.5962 45.9773L86.3337 53.0575V56.9065ZM118.214 18.64C118.214 19.3518 118.075 20.0167 117.798 20.6348C117.54 21.253 117.18 21.7961 116.718 22.2644C116.257 22.7139 115.712 23.0792 115.084 23.3601C114.475 23.6223 113.819 23.7535 113.117 23.7535C112.416 23.7535 111.751 23.6223 111.123 23.3601C110.514 23.0792 109.978 22.7139 109.517 22.2644C109.074 21.7961 108.714 21.253 108.436 20.6348C108.178 20.0167 108.049 19.3518 108.049 18.64C108.049 17.947 108.178 17.2914 108.436 16.6733C108.714 16.0365 109.074 15.4933 109.517 15.0438C109.978 14.5755 110.514 14.2103 111.123 13.948C111.751 13.6671 112.416 13.5266 113.117 13.5266C113.819 13.5266 114.475 13.6671 115.084 13.948C115.712 14.2103 116.257 14.5755 116.718 15.0438C117.18 15.4933 117.54 16.0365 117.798 16.6733C118.075 17.2914 118.214 17.947 118.214 18.64ZM116.912 56.9065H109.295V26.8159H116.912V56.9065ZM137.575 56.9065C135.747 56.9065 134.029 56.5601 132.423 55.867C130.816 55.1554 129.404 54.1906 128.185 52.9731C126.985 51.7367 126.034 50.304 125.332 48.6744C124.649 47.0449 124.307 45.303 124.307 43.4486V34.5142H120.624V26.8721H124.307V14.8471H131.841V26.8721H143.308V34.5142H131.841V43.4486C131.841 44.2542 131.989 45.0126 132.284 45.7245C132.58 46.4173 132.986 47.0261 133.503 47.5505C134.02 48.0752 134.629 48.4964 135.331 48.8148C136.033 49.1148 136.78 49.2644 137.575 49.2644H143.308V56.9065H137.575ZM170.729 56.9065H145.995L158.487 34.5142H145.995V26.8721H170.729L158.237 49.2644H170.729V56.9065Z" fill="#5F2EEA"/>
<path d="M180.671 33.6011C180.665 33.5977 180.659 33.5957 180.653 33.5927L178.179 32.1431C178.025 32.3211 177.815 32.4394 177.584 32.478C177.354 32.5165 177.118 32.4728 176.915 32.3544C176.713 32.2358 176.557 32.0498 176.475 31.8279C176.393 31.6061 176.389 31.3622 176.464 31.1377L173.973 29.6781C173.906 29.639 173.827 29.6285 173.752 29.6487C173.678 29.669 173.614 29.7184 173.575 29.7862L166.18 42.7795L166.18 42.7803C166.16 42.8137 166.148 42.8509 166.143 42.8893C166.138 42.928 166.141 42.9667 166.151 43.0043C166.16 43.0419 166.177 43.0768 166.201 43.1079C166.224 43.1386 166.253 43.1643 166.286 43.1839L168.778 44.6416C168.932 44.4639 169.142 44.3458 169.373 44.3071C169.603 44.2687 169.839 44.3124 170.042 44.4306C170.244 44.5491 170.399 44.7348 170.482 44.9561C170.565 45.1774 170.569 45.421 170.495 45.6454L172.954 47.0843C172.964 47.092 172.973 47.1001 172.984 47.1066C173.018 47.1261 173.054 47.1384 173.092 47.1438C173.13 47.1488 173.169 47.1461 173.205 47.1361C173.242 47.1261 173.277 47.1089 173.307 47.0851C173.338 47.0617 173.363 47.0322 173.382 46.9984V46.9988L180.778 34.0046C180.797 33.971 180.809 33.9339 180.814 33.8954C180.819 33.857 180.817 33.8179 180.807 33.7804C180.797 33.743 180.78 33.7079 180.757 33.6771C180.733 33.6463 180.704 33.6205 180.671 33.6011ZM178.551 34.6097L172.786 44.739C172.766 44.7727 172.741 44.8023 172.711 44.8257C172.68 44.8495 172.646 44.8667 172.609 44.8767C172.572 44.8867 172.533 44.8894 172.495 44.8844C172.458 44.8794 172.421 44.8667 172.388 44.8472L168.514 42.5782C168.48 42.5586 168.451 42.5329 168.428 42.5022C168.405 42.4715 168.388 42.4362 168.378 42.399C168.368 42.3614 168.366 42.3223 168.37 42.2839C168.376 42.2456 168.388 42.2084 168.407 42.175L174.172 32.0456C174.211 31.9779 174.274 31.9284 174.349 31.9082C174.423 31.8879 174.503 31.8985 174.57 31.9376L178.444 34.2068C178.477 34.2261 178.506 34.2519 178.53 34.2826C178.553 34.3134 178.57 34.3484 178.58 34.3859C178.59 34.4233 178.592 34.4623 178.587 34.5008C178.582 34.5392 178.57 34.5762 178.551 34.6097Z" fill="#5F2EEA"/>
<path d="M175.445 38.1215L174.218 37.89L174.046 36.6999C174.043 36.6824 174.035 36.666 174.023 36.6533C174.011 36.6405 173.995 36.6318 173.978 36.6285C173.96 36.6251 173.943 36.6273 173.927 36.6347C173.911 36.642 173.898 36.6542 173.889 36.6696L173.294 37.7152L172.097 37.4895C172.08 37.4863 172.062 37.4886 172.046 37.496C172.03 37.5034 172.017 37.5155 172.008 37.5309C172 37.5462 171.996 37.5638 171.997 37.5815C171.999 37.5991 172.006 37.6158 172.017 37.6293L172.809 38.568L172.213 39.6133C172.204 39.629 172.2 39.6467 172.202 39.6643C172.204 39.6823 172.211 39.6992 172.222 39.7126C172.234 39.7261 172.249 39.7353 172.266 39.7395C172.283 39.7437 172.301 39.7426 172.317 39.736L173.419 39.2926L174.231 40.2551C174.242 40.2681 174.257 40.2777 174.274 40.2819C174.291 40.2861 174.309 40.285 174.325 40.2788C174.341 40.2727 174.355 40.2616 174.365 40.247C174.375 40.2324 174.38 40.2152 174.379 40.1975L174.358 38.9071L175.471 38.2803C175.486 38.2716 175.498 38.2584 175.506 38.2425C175.514 38.2266 175.516 38.2088 175.514 38.1914C175.511 38.1741 175.502 38.1581 175.49 38.1456C175.478 38.1331 175.462 38.1247 175.445 38.1215Z" fill="#5F2EEA"/>
</svg>
