<svg width="153" height="60" viewBox="0 0 153 60" fill="none" xmlns="http://www.w3.org/2000/svg">
<path d="M16.9474 47.742H10.3529V20.6424H0.415039V13.8616H26.8622V20.6424H16.9474V47.742ZM37.123 15.5627C37.123 16.1612 37.0077 16.7204 36.777 17.2402C36.562 17.76 36.2623 18.2168 35.8779 18.6105C35.4935 18.9886 35.0401 19.2957 34.5176 19.532C34.0101 19.7525 33.4645 19.8627 32.8802 19.8627C32.2962 19.8627 31.7428 19.7525 31.2202 19.532C30.7129 19.2957 30.2671 18.9886 29.8828 18.6105C29.5139 18.2168 29.2142 17.76 28.9836 17.2402C28.7683 16.7204 28.6607 16.1612 28.6607 15.5627C28.6607 14.9799 28.7683 14.4286 28.9836 13.9089C29.2142 13.3733 29.5139 12.9165 29.8828 12.5385C30.2671 12.1447 30.7129 11.8376 31.2202 11.6171C31.7428 11.3808 32.2962 11.2627 32.8802 11.2627C33.4645 11.2627 34.0101 11.3808 34.5176 11.6171C35.0401 11.8376 35.4935 12.1447 35.8779 12.5385C36.2623 12.9165 36.562 13.3733 36.777 13.9089C37.0077 14.4286 37.123 14.9799 37.123 15.5627ZM36.0394 47.742H29.6983V22.438H36.0394V47.742ZM62.4404 27.4705L57.8287 32.2194C57.5982 31.5579 57.2831 30.9672 56.8833 30.4474C56.4838 29.9119 56.0304 29.463 55.5229 29.1007C55.0312 28.7384 54.4932 28.4628 53.9089 28.2738C53.3249 28.0848 52.7252 27.9902 52.1104 27.9902C51.2496 27.9902 50.4349 28.1714 49.6665 28.5337C48.9131 28.8959 48.252 29.4079 47.6834 30.0694C47.13 30.7152 46.6918 31.487 46.3691 32.3849C46.0464 33.2827 45.8849 34.2749 45.8849 35.3617C45.8849 36.2436 46.0464 37.0707 46.3691 37.8427C46.6918 38.6143 47.13 39.2917 47.6834 39.8743C48.252 40.4572 48.9131 40.9139 49.6665 41.2446C50.4349 41.5756 51.2496 41.7407 52.1104 41.7407C52.7252 41.7407 53.317 41.6543 53.8859 41.481C54.4548 41.3078 54.9849 41.0636 55.477 40.7485C55.9841 40.4178 56.4299 40.0239 56.8143 39.5672C57.2138 39.0946 57.5368 38.5749 57.7827 38.0078L62.3941 42.7569C61.8101 43.6075 61.1336 44.3714 60.3651 45.0485C59.6118 45.7259 58.7895 46.3007 57.8979 46.7733C57.0218 47.2459 56.0918 47.6004 55.108 47.8365C54.1397 48.0885 53.1404 48.2146 52.1104 48.2146C50.3735 48.2146 48.7365 47.8836 47.1992 47.2223C45.6774 46.5449 44.3401 45.6236 43.1872 44.4578C42.0495 43.2923 41.1504 41.9298 40.4893 40.3704C39.8285 38.811 39.4979 37.1417 39.4979 35.3617C39.4979 33.4243 39.8285 31.613 40.4893 29.9276C41.1504 28.2423 42.0495 26.7774 43.1872 25.5331C44.3401 24.273 45.6774 23.2807 47.1992 22.5561C48.7365 21.8316 50.3735 21.4693 52.1104 21.4693C53.1404 21.4693 54.1472 21.6032 55.131 21.871C56.1302 22.1388 57.0756 22.5325 57.9672 23.0523C58.8741 23.5563 59.704 24.1785 60.4574 24.9188C61.2258 25.6591 61.8869 26.5097 62.4404 27.4705ZM71.871 47.742H65.53V12.3731H71.871V34.6765L81.2553 22.4853H88.4957L80.3102 33.0227L88.4957 47.742H81.2553L76.2519 38.5514L71.871 44.5052V47.742ZM98.4105 15.5627C98.4105 16.1612 98.295 16.7204 98.0645 17.2402C97.8492 17.76 97.5495 18.2168 97.1654 18.6105C96.781 18.9886 96.3274 19.2957 95.8048 19.532C95.2976 19.7525 94.752 19.8627 94.1677 19.8627C93.5837 19.8627 93.0303 19.7525 92.5077 19.532C92.0002 19.2957 91.5545 18.9886 91.1704 18.6105C90.8014 18.2168 90.5017 17.76 90.271 17.2402C90.0559 16.7204 89.9483 16.1612 89.9483 15.5627C89.9483 14.9799 90.0559 14.4286 90.271 13.9089C90.5017 13.3733 90.8014 12.9165 91.1704 12.5385C91.5545 12.1447 92.0002 11.8376 92.5077 11.6171C93.0303 11.3808 93.5837 11.2627 94.1677 11.2627C94.752 11.2627 95.2976 11.3808 95.8048 11.6171C96.3274 11.8376 96.781 12.1447 97.1654 12.5385C97.5495 12.9165 97.8492 13.3733 98.0645 13.9089C98.295 14.4286 98.4105 14.9799 98.4105 15.5627ZM97.3266 47.742H90.9859V22.438H97.3266V47.742ZM114.528 47.742C113.006 47.742 111.576 47.4507 110.239 46.8678C108.902 46.2694 107.726 45.4581 106.711 44.4343C105.712 43.3946 104.92 42.1898 104.336 40.8194C103.767 39.4491 103.483 37.9843 103.483 36.4249V28.9117H100.416V22.4853H103.483V12.3731H109.755V22.4853H119.301V28.9117H109.755V36.4249C109.755 37.1023 109.878 37.7401 110.124 38.3388C110.37 38.9214 110.708 39.4333 111.138 39.8743C111.569 40.3156 112.076 40.6698 112.66 40.9375C113.244 41.1898 113.867 41.3156 114.528 41.3156H119.301V47.742H114.528ZM142.128 47.742H121.537L131.936 28.9117H121.537V22.4853H142.128L131.729 41.3156H142.128V47.742Z" fill="#5F2EEA"/>
<path d="M150.404 28.1441C150.399 28.1413 150.394 28.1396 150.389 28.1371L148.33 26.9181C148.201 27.0678 148.026 27.1673 147.834 27.1996C147.643 27.2321 147.446 27.1953 147.277 27.0957C147.109 26.996 146.979 26.8396 146.911 26.653C146.842 26.4665 146.839 26.2614 146.902 26.0726L144.828 24.8452C144.772 24.8123 144.706 24.8034 144.644 24.8205C144.582 24.8375 144.529 24.8791 144.497 24.9361L138.34 35.8625L138.34 35.8632C138.324 35.8912 138.314 35.9225 138.31 35.9548C138.306 35.9874 138.308 36.0199 138.316 36.0516C138.324 36.0832 138.338 36.1125 138.358 36.1387C138.377 36.1645 138.401 36.1861 138.429 36.2025L140.503 37.4283C140.632 37.279 140.806 37.1796 140.998 37.147C141.19 37.1148 141.387 37.1516 141.555 37.2509C141.723 37.3506 141.853 37.5067 141.921 37.6929C141.99 37.879 141.994 38.0838 141.932 38.2725L143.98 39.4825C143.988 39.489 143.996 39.4958 144.005 39.5012C144.033 39.5177 144.063 39.528 144.095 39.5325C144.126 39.5367 144.158 39.5345 144.189 39.5261C144.22 39.5177 144.248 39.5032 144.274 39.4832C144.299 39.4635 144.32 39.4387 144.336 39.4103V39.4106L150.493 28.4834C150.509 28.4552 150.519 28.424 150.523 28.3916C150.527 28.3593 150.525 28.3265 150.517 28.2949C150.509 28.2634 150.495 28.2339 150.475 28.208C150.456 28.1821 150.432 28.1604 150.404 28.1441ZM148.639 28.9923L143.839 37.5103C143.823 37.5387 143.802 37.5635 143.777 37.5832C143.752 37.6032 143.723 37.6177 143.692 37.6261C143.661 37.6345 143.629 37.6367 143.598 37.6325C143.566 37.6283 143.536 37.6177 143.508 37.6012L140.283 35.6932C140.255 35.6767 140.231 35.6551 140.212 35.6293C140.193 35.6035 140.178 35.5738 140.17 35.5425C140.162 35.5109 140.16 35.478 140.164 35.4458C140.168 35.4135 140.178 35.3822 140.194 35.3541L144.994 26.8361C145.026 26.7791 145.079 26.7375 145.141 26.7205C145.203 26.7035 145.269 26.7123 145.325 26.7452L148.55 28.6535C148.578 28.6697 148.602 28.6914 148.621 28.7172C148.641 28.7431 148.655 28.7726 148.663 28.8041C148.671 28.8355 148.673 28.8684 148.669 28.9007C148.665 28.933 148.655 28.9641 148.639 28.9923Z" fill="#5F2EEA"/>
<path d="M146.053 31.9453L145.031 31.7506L144.888 30.7499C144.886 30.7351 144.879 30.7213 144.869 30.7106C144.859 30.6998 144.846 30.6925 144.832 30.6898C144.817 30.687 144.802 30.6888 144.789 30.695C144.776 30.7012 144.765 30.7114 144.757 30.7243L144.262 31.6036L143.266 31.4138C143.252 31.4111 143.237 31.413 143.223 31.4192C143.21 31.4255 143.199 31.4357 143.192 31.4486C143.185 31.4615 143.182 31.4763 143.183 31.4912C143.184 31.506 143.19 31.52 143.199 31.5314L143.858 32.3207L143.362 33.1998C143.355 33.213 143.352 33.2278 143.354 33.2427C143.355 33.2578 143.361 33.272 143.37 33.2833C143.38 33.2946 143.393 33.3023 143.407 33.3059C143.421 33.3094 143.436 33.3085 143.449 33.303L144.367 32.9301L145.042 33.7394C145.052 33.7504 145.064 33.7585 145.078 33.762C145.092 33.7656 145.107 33.7646 145.121 33.7594C145.134 33.7543 145.145 33.7449 145.154 33.7327C145.162 33.7204 145.166 33.7059 145.166 33.6911L145.148 32.6059L146.074 32.0788C146.087 32.0715 146.097 32.0604 146.104 32.0471C146.11 32.0337 146.112 32.0187 146.11 32.0041C146.107 31.9895 146.101 31.976 146.09 31.9655C146.08 31.955 146.067 31.948 146.053 31.9453Z" fill="#5F2EEA"/>
</svg>
