<svg width="248" height="133" viewBox="0 0 248 133" fill="none" xmlns="http://www.w3.org/2000/svg">
<rect x="7" y="14.616" width="234" height="118" rx="4" fill="#5F2EEA" fill-opacity="0.6"/>
<rect y="2.61597" width="248" height="125" rx="8" fill="url(#paint0_linear_16695_5162)"/>
<path fill-rule="evenodd" clip-rule="evenodd" d="M152.032 2.61597H240C244.418 2.61597 248 6.19769 248 10.616V54.5823C238.093 61.5351 226.023 65.616 213 65.616C179.311 65.616 152 38.3053 152 4.61597C152 3.94673 152.011 3.28001 152.032 2.61597Z" fill="white" fill-opacity="0.3"/>
<path fill-rule="evenodd" clip-rule="evenodd" d="M175.453 2.61597H240C244.418 2.61597 248 6.19769 248 10.616V91.2617C241.735 93.4351 235.005 94.616 228 94.616C194.311 94.616 167 67.3053 167 33.616C167 22.2982 170.082 11.7003 175.453 2.61597Z" fill="white" fill-opacity="0.3"/>
<g clip-path="url(#clip0_16695_5162)">
<path d="M216.693 52.7626C216.364 52.6759 216.061 52.5118 215.809 52.2838L206.809 43.9984L194.873 46.6739C194.485 46.7616 194.08 46.7387 193.705 46.6078C193.329 46.4769 192.998 46.2434 192.749 45.9336C192.5 45.6239 192.342 45.2505 192.295 44.8557C192.247 44.461 192.311 44.0608 192.479 43.7007L197.628 32.6946L191.372 22.2182C191.178 21.8842 191.08 21.5039 191.086 21.1181C191.093 20.7322 191.204 20.3554 191.409 20.0281C191.625 19.6952 191.931 19.4297 192.291 19.2617C192.651 19.0938 193.051 19.0301 193.445 19.0779L205.601 20.5092L213.575 11.3598C213.836 11.0578 214.177 10.8355 214.558 10.7182C214.94 10.601 215.347 10.5936 215.733 10.6969C216.118 10.8003 216.467 11.0101 216.739 11.3024C217.011 11.5948 217.195 11.9578 217.27 12.3498L219.667 24.2561L230.911 29.0947C231.276 29.2505 231.59 29.5056 231.818 29.831C232.046 30.1565 232.178 30.5392 232.199 30.9359C232.213 31.3216 232.121 31.7036 231.933 32.041C231.746 32.3784 231.47 32.6584 231.136 32.851L220.479 38.7954L219.435 50.9015C219.406 51.306 219.261 51.6934 219.018 52.0182C218.775 52.3429 218.444 52.5913 218.064 52.7341C217.623 52.895 217.141 52.905 216.693 52.7626V52.7626Z" fill="url(#paint1_linear_16695_5162)"/>
</g>
<defs>
<linearGradient id="paint0_linear_16695_5162" x1="51.5" y1="104.116" x2="154" y2="49.616" gradientUnits="userSpaceOnUse">
<stop offset="0.261458" stop-color="#5F2EEA"/>
<stop offset="1" stop-color="#7647F9"/>
</linearGradient>
<linearGradient id="paint1_linear_16695_5162" x1="215.763" y1="10.7052" x2="205.309" y2="49.723" gradientUnits="userSpaceOnUse">
<stop stop-color="#FFF6DC"/>
<stop offset="1" stop-color="#FFC107"/>
</linearGradient>
<clipPath id="clip0_16695_5162">
<rect width="51" height="51" fill="white" transform="translate(192.199) rotate(15)"/>
</clipPath>
</defs>
</svg>
