<svg width="181" height="45" viewBox="0 0 181 45" fill="none" xmlns="http://www.w3.org/2000/svg">
<path d="M19.8593 43.7752H11.9377V11.2556H0V3.11868H31.7694V11.2556H19.8593V43.7752ZM44.095 5.16C44.095 5.87826 43.9566 6.54925 43.6794 7.17298C43.4211 7.79675 43.0611 8.34488 42.5993 8.8174C42.1376 9.27104 41.593 9.6396 40.9653 9.92311C40.3556 10.1877 39.7003 10.32 38.9984 10.32C38.2969 10.32 37.6321 10.1877 37.0043 9.92311C36.3949 9.6396 35.8595 9.27104 35.3978 8.8174C34.9547 8.34488 34.5946 7.79675 34.3176 7.17298C34.0591 6.54925 33.9298 5.87826 33.9298 5.16C33.9298 4.46067 34.0591 3.79912 34.3176 3.17539C34.5946 2.53273 34.9547 1.98461 35.3978 1.53097C35.8595 1.05844 36.3949 0.689883 37.0043 0.425264C37.6321 0.141754 38.2969 0 38.9984 0C39.7003 0 40.3556 0.141754 40.9653 0.425264C41.593 0.689883 42.1376 1.05844 42.5993 1.53097C43.0611 1.98461 43.4211 2.53273 43.6794 3.17539C43.9566 3.79912 44.095 4.46067 44.095 5.16ZM42.7933 43.7752H35.1762V13.4104H42.7933V43.7752ZM74.5072 19.4493L68.9674 25.148C68.6906 24.3542 68.3121 23.6454 67.8318 23.0216C67.3519 22.379 66.8073 21.8403 66.1977 21.4056C65.607 20.9709 64.9608 20.6401 64.2589 20.4133C63.5574 20.1865 62.837 20.0731 62.0984 20.0731C61.0645 20.0731 60.0858 20.2904 59.1627 20.7252C58.2577 21.1599 57.4636 21.7742 56.7806 22.568C56.1158 23.343 55.5894 24.2691 55.2018 25.3467C54.8141 26.424 54.6201 27.6147 54.6201 28.9188C54.6201 29.9771 54.8141 30.9696 55.2018 31.896C55.5894 32.8219 56.1158 33.6348 56.7806 34.3339C57.4636 35.0334 58.2577 35.5815 59.1627 35.9783C60.0858 36.3754 61.0645 36.5736 62.0984 36.5736C62.837 36.5736 63.5479 36.4699 64.2313 36.262C64.9146 36.0541 65.5514 35.7611 66.1425 35.3829C66.7518 34.9861 67.2872 34.5135 67.749 33.9654C68.2289 33.3983 68.6169 32.7747 68.9122 32.0941L74.4516 37.793C73.7501 38.8138 72.9374 39.7304 72.0143 40.5429C71.1094 41.3558 70.1216 42.0456 69.0506 42.6127C67.9982 43.1798 66.8811 43.6052 65.6993 43.8886C64.5361 44.1909 63.3358 44.3423 62.0984 44.3423C60.012 44.3423 58.0456 43.9451 56.199 43.1516C54.3709 42.3387 52.7645 41.2331 51.3796 39.8341C50.0129 38.4356 48.9329 36.8005 48.1387 34.9292C47.3449 33.058 46.9479 31.0548 46.9479 28.9188C46.9479 26.5939 47.3449 24.4203 48.1387 22.3979C48.9329 20.3755 50.0129 18.6177 51.3796 17.1245C52.7645 15.6124 54.3709 14.4216 56.199 13.5521C58.0456 12.6827 60.012 12.248 62.0984 12.248C63.3358 12.248 64.5451 12.4086 65.7269 12.7299C66.9272 13.0513 68.0629 13.5238 69.1338 14.1475C70.2233 14.7524 71.2202 15.499 72.1251 16.3873C73.0482 17.2757 73.8424 18.2964 74.5072 19.4493ZM85.8356 43.7752H78.2186V1.3325H85.8356V28.0966L97.1084 13.4671H105.806L95.9731 26.112L105.806 43.7752H97.1084L91.0982 32.7464L85.8356 39.891V43.7752ZM117.716 5.16C117.716 5.87826 117.577 6.54925 117.3 7.17298C117.042 7.79675 116.682 8.34488 116.22 8.8174C115.759 9.27104 115.214 9.6396 114.586 9.92311C113.977 10.1877 113.321 10.32 112.619 10.32C111.918 10.32 111.253 10.1877 110.625 9.92311C110.016 9.6396 109.48 9.27104 109.019 8.8174C108.576 8.34488 108.216 7.79675 107.938 7.17298C107.68 6.54925 107.551 5.87826 107.551 5.16C107.551 4.46067 107.68 3.79912 107.938 3.17539C108.216 2.53273 108.576 1.98461 109.019 1.53097C109.48 1.05844 110.016 0.689883 110.625 0.425264C111.253 0.141754 111.918 0 112.619 0C113.321 0 113.977 0.141754 114.586 0.425264C115.214 0.689883 115.759 1.05844 116.22 1.53097C116.682 1.98461 117.042 2.53273 117.3 3.17539C117.577 3.79912 117.716 4.46067 117.716 5.16ZM116.414 43.7752H108.797V13.4104H116.414V43.7752ZM137.077 43.7752C135.249 43.7752 133.531 43.4256 131.925 42.7261C130.318 42.0081 128.906 41.0345 127.687 39.8059C126.487 38.5583 125.536 37.1125 124.834 35.4681C124.151 33.8237 123.809 32.0659 123.809 30.1947V21.1788H120.126V13.4671H123.809V1.3325H131.343V13.4671H142.81V21.1788H131.343V30.1947C131.343 31.0076 131.491 31.7729 131.786 32.4913C132.082 33.1904 132.488 33.8047 133.005 34.3339C133.522 34.8634 134.131 35.2885 134.833 35.6098C135.535 35.9125 136.282 36.0634 137.077 36.0634H142.81V43.7752H137.077ZM170.231 43.7752H145.497L157.988 21.1788H145.497V13.4671H170.231L157.739 36.0634H170.231V43.7752Z" fill="#5F2EEA"/>
<path d="M180.171 20.2576C180.165 20.2541 180.159 20.2522 180.153 20.2491L177.679 18.7863C177.525 18.9659 177.315 19.0853 177.084 19.1242C176.854 19.1631 176.618 19.119 176.415 18.9995C176.213 18.8799 176.057 18.6921 175.975 18.4683C175.893 18.2444 175.889 17.9982 175.964 17.7717L173.473 16.2988C173.406 16.2594 173.327 16.2488 173.252 16.2692C173.178 16.2896 173.114 16.3395 173.075 16.4079L165.68 29.5196L165.68 29.5204C165.66 29.5541 165.648 29.5916 165.643 29.6304C165.638 29.6695 165.641 29.7086 165.651 29.7465C165.66 29.7844 165.677 29.8196 165.701 29.851C165.724 29.882 165.753 29.9079 165.786 29.9276L168.278 31.3986C168.432 31.2194 168.642 31.1002 168.873 31.0611C169.103 31.0224 169.339 31.0665 169.542 31.1857C169.744 31.3053 169.899 31.4927 169.982 31.716C170.065 31.9394 170.069 32.1852 169.995 32.4117L172.454 33.8637C172.464 33.8714 172.473 33.8795 172.484 33.8861C172.518 33.9058 172.554 33.9182 172.592 33.9237C172.63 33.9287 172.669 33.926 172.705 33.9159C172.742 33.9058 172.777 33.8884 172.807 33.8644C172.838 33.8408 172.863 33.811 172.882 33.7769V33.7773L180.278 20.6647C180.297 20.6308 180.309 20.5934 180.314 20.5546C180.319 20.5158 180.317 20.4764 180.307 20.4385C180.297 20.4007 180.28 20.3653 180.257 20.3342C180.233 20.3032 180.204 20.2771 180.171 20.2576ZM178.051 21.2754L172.286 31.4969C172.266 31.531 172.241 31.5608 172.211 31.5844C172.18 31.6084 172.146 31.6258 172.109 31.6359C172.072 31.646 172.033 31.6487 171.995 31.6437C171.958 31.6386 171.921 31.6258 171.888 31.6061L168.014 29.3164C167.98 29.2967 167.951 29.2707 167.928 29.2398C167.905 29.2088 167.888 29.1732 167.878 29.1356C167.868 29.0977 167.866 29.0582 167.87 29.0195C167.876 28.9808 167.888 28.9433 167.907 28.9096L173.672 18.6879C173.711 18.6195 173.774 18.5696 173.849 18.5492C173.923 18.5288 174.003 18.5394 174.07 18.5789L177.944 20.8688C177.977 20.8883 178.006 20.9143 178.03 20.9453C178.053 20.9763 178.07 21.0117 178.08 21.0495C178.09 21.0873 178.092 21.1266 178.087 21.1654C178.082 21.2042 178.07 21.2416 178.051 21.2754Z" fill="#5F2EEA"/>
<path d="M174.944 24.8192L173.717 24.5856L173.545 23.3847C173.542 23.367 173.534 23.3505 173.522 23.3376C173.51 23.3247 173.494 23.3159 173.477 23.3126C173.459 23.3092 173.442 23.3114 173.426 23.3188C173.41 23.3262 173.397 23.3386 173.388 23.354L172.793 24.4092L171.596 24.1815C171.579 24.1782 171.561 24.1805 171.545 24.188C171.529 24.1954 171.516 24.2077 171.507 24.2232C171.499 24.2386 171.495 24.2564 171.496 24.2742C171.498 24.292 171.505 24.3089 171.516 24.3225L172.308 25.2697L171.712 26.3246C171.703 26.3405 171.699 26.3583 171.701 26.3761C171.703 26.3943 171.71 26.4113 171.721 26.4248C171.733 26.4384 171.748 26.4477 171.765 26.4519C171.782 26.4562 171.8 26.455 171.816 26.4485L172.918 26.001L173.73 26.9722C173.741 26.9854 173.756 26.995 173.773 26.9993C173.79 27.0035 173.808 27.0024 173.824 26.9962C173.84 26.99 173.854 26.9788 173.864 26.9641C173.874 26.9494 173.879 26.9319 173.878 26.9141L173.857 25.6119L174.97 24.9794C174.985 24.9706 174.997 24.9574 175.005 24.9413C175.013 24.9253 175.015 24.9073 175.013 24.8897C175.01 24.8722 175.001 24.8561 174.989 24.8435C174.977 24.8309 174.961 24.8224 174.944 24.8192Z" fill="#5F2EEA"/>
</svg>
